<svg xmlns="http://www.w3.org/2000/svg" viewBox="0 0 1194 341.1"><defs><style>.cls-1{fill:#1ed69e;}.cls-2{fill:#4211d0;}.cls-3{fill:#fff;}</style></defs><g id="Layer_2" data-name="Layer 2"><g id="Layer_1-2" data-name="Layer 1"><path class="cls-1" d="M76,.9h-.1L77.5.7ZM95.3,176.4l1.5.2H95.3Z"/><path class="cls-1" d="M176.8,88.5a88.5,88.5,0,0,1-18.3,53.9,98.9,98.9,0,0,0-32-5.2H105.8l-6.5-.4h-.1l-2.4-.3a48.7,48.7,0,0,0-8.4-96.7h-3l2.2-.9A19.9,19.9,0,0,0,78.5.6,79.8,79.8,0,0,1,88.4,0a88.4,88.4,0,0,1,88.4,88.5Z"/><path class="cls-2" d="M97.2,176.5h-.4l-1.5-.2Z"/><path class="cls-3" d="M209.7,181.1a101.2,101.2,0,0,0-45.3-36.5l-5.9-2.2a98.9,98.9,0,0,0-32-5.2H105.8l-6.5-.4h-.1l-2.4-.3-1.7-.4-1.7-.3h0l-1.6-.4h-.2l-1.1-.3-1.6-.6h-.5l-1.1-.4-1.1-.5-.5-.2-.6-.2-1-.5-.5-.2-1.1-.5-.5-.3-2-1.1-.4-.2-.6-.4-.4-.3-.6-.3-.4-.3-1.8-1.3-.5-.3-.4-.3a33.7,33.7,0,0,1-3.5-2.9l-.5-.4-.9-.9-.4-.4a38.9,38.9,0,0,1-4.6-5.3l-.4-.4a6.1,6.1,0,0,0-.7-1l-.5-.8-.3-.5-.3-.4-.3-.5-.3-.5-.6-.9-.3-.5a.8.8,0,0,0-.2-.4l-.3-.5c-.2-.3-.3-.7-.5-1l-.3-.5a10.8,10.8,0,0,1-.8-1.9,3.3,3.3,0,0,1-.3-.6,3,3,0,0,1-.4-1c-.1-.2-.2-.3-.2-.5a4.2,4.2,0,0,1-.4-1l-.6-1.6c0-.2-.1-.3-.2-.5a1.4,1.4,0,0,0-.2-.6,4.3,4.3,0,0,1-.1-.5l-.3-1c0-.2-.1-.3-.1-.5a24.6,24.6,0,0,1-.7-2.9c-.1-.3-.1-.7-.2-1a5.1,5.1,0,0,1-.2-1.3v-.4c0-.3-.1-.6-.1-.9s-.1-.4-.1-.6-.1-.6-.1-.9v-.4a.9.9,0,0,0-.1-.5V90c-.1-1.2-.1-2.4-.1-3.5s0-2.5.1-3.8.1-.4.1-.7v-.6c0-.2.1-.5.1-.8s.1-.5.1-.8a1.7,1.7,0,0,0,.1-.7h.1v-.7a.6.6,0,0,0,.1-.4c0-.1.1-.3.1-.4s.1-.4.1-.6.1-.5.1-.8l.2-.6a61654275059661.6,61654275059661.6,0,0,1,.2-.8c0-.2.1-.3.1-.5s.1-.3.1-.4a1.1,1.1,0,0,0,.1-.5l.2-.5a.8.8,0,0,1,.1-.4,4.3,4.3,0,0,0,.1-.5c.1-.1.1-.2.1-.4s.1-.3.2-.5l.3-.8a6.4,6.4,0,0,0,.2-.7,1.4,1.4,0,0,0,.2-.6l.3-.5.6-1.7a5.9,5.9,0,0,1,.4-.8,13,13,0,0,1,.8-1.7,30.1,30.1,0,0,1,1.9-3.5l.4-.7a5.6,5.6,0,0,1,.5-.8,5.6,5.6,0,0,1,.5-.8l.6-.8a1.8,1.8,0,0,1,.5-.7c0-.1,0-.1.1-.1l.4-.7.7-.9.5-.6.6-.8h.1l.4-.6.9-.9.4-.5h.2l.6-.7h0l.6-.6h.1l.5-.5,2.3-2c.1-.2.3-.3.4-.4l.4-.3a1.8,1.8,0,0,1,.7-.5,1.9,1.9,0,0,1,.7-.6,26.2,26.2,0,0,1,3.4-2.4l.6-.4,1-.5.7-.4.8-.5.7-.4.5-.2.3-.2.5-.2.5-.2.3-.2.5-.2.4-.2h.3l2.2-.9A19.9,19.9,0,0,0,78.5.6h-1L75.9.9A88.6,88.6,0,0,0,0,83.7V338.8H126.5a100.8,100.8,0,0,0,83.2-157.7ZM149.4,294.6a61.9,61.9,0,0,1-22.9,4.5H39.8V148.8l.6.7,1.4,1.4,2.1,1.9,1.3,1.3.8.7.7.6,1.2,1,.6.5,1.3,1,.6.5.9.7.7.5.8.5a70.6,70.6,0,0,0,6.4,4.2l.8.5.7.4,1,.6.7.3,1.9,1,.8.5.8.3h.2l.8.4.9.4.9.4.8.4,2,.8.8.3,4.7,1.7,1,.3,1.8.6.8.2,1,.3.8.2.7.2.8.2h.2l.9.2h.8l1.4.3.6.2,1.4.2.9.2h1.3l2,.3h3.8c1.8.2,4.3.3,7.4.4h21.9a61.1,61.1,0,0,1,61,61A60.7,60.7,0,0,1,149.4,294.6Z"/><rect class="cls-3" x="531.8" width="46.4" height="339.47"/><rect class="cls-3" x="615" width="46.4" height="339.47"/><path class="cls-3" d="M941.2,102.4v48.3a55.1,55.1,0,0,0-13-1.9h-2.8c-22.6.6-43.2,15-49.3,35.3a100,100,0,0,0-2.1,10.4,93.6,93.6,0,0,0-1.2,14.9V339.5H826.4V102.4h46.4v9.5a8.1,8.1,0,0,0,6.1,7.9,7.7,7.7,0,0,0,4-.2h0c1.5-1.6,3.2-3.2,4.9-4.7a54.1,54.1,0,0,1,34.6-12.5Z"/><path class="cls-3" d="M1192,201.1c-.3-2.1-.8-4.3-1.3-6.4h0c0-.2-.1-.3-.1-.4s-.1-.3-.1-.5a119.9,119.9,0,0,0-15.4-35.5c-1.5-2.2-3-4.5-4.6-6.7a123.4,123.4,0,0,0-22.4-22.7,118.5,118.5,0,0,0-53.2-23.3,123.9,123.9,0,0,0-19.4-1.5,122.6,122.6,0,0,0-19.3,1.5,119.1,119.1,0,0,0-53,23.1,113.3,113.3,0,0,0-11.1,9.7,131,131,0,0,0-11.5,13.2,118.5,118.5,0,0,0-23.4,65.2v11.4c.1,2.6.3,5.2.6,7.7a116.8,116.8,0,0,0,14,43.8,118.5,118.5,0,0,0,89.5,60.4,111.6,111.6,0,0,0,14.2.9,113.2,113.2,0,0,0,14.3-.9,116.9,116.9,0,0,0,58.3-24c1.8-1.3,3.4-2.7,5.1-4.1l1-.9,5.4-5.1a129.2,129.2,0,0,0,10.3-11.9,118.1,118.1,0,0,0,24.1-71.6A116.7,116.7,0,0,0,1192,201.1Zm-43.9,21.4a72.5,72.5,0,0,1-20.9,51,56.8,56.8,0,0,1-5.1,4.7,72,72,0,0,1-34.7,15.9,65.9,65.9,0,0,1-11.9,1,67.5,67.5,0,0,1-11.9-1,72.7,72.7,0,0,1-60.4-65.3c-.2-2.1-.2-4.2-.2-6.3v-2.7c0-1.2.1-2.4.2-3.5a72.8,72.8,0,0,1,56.6-64.7,73.3,73.3,0,0,1,15.7-1.7,75,75,0,0,1,15.8,1.7,73,73,0,0,1,56.6,65.3h.2Z"/><path class="cls-3" d="M744.2,0H698.1V285.6a58.1,58.1,0,0,0,.5,7.2.4.4,0,0,0,.1.3,53.9,53.9,0,0,0,45.2,45.8h.7l2,.3h.3l42.9.2.2-40.4v-5.9H763.9a22.8,22.8,0,0,1-19.3-22.6V148.8H790l.2-38.7h0v-7.4h-6.1l-39.1-.2h-.7Z"/><path class="cls-3" d="M496.8,222.6a114.8,114.8,0,0,0-1.9-21.3l-.3-1.6c-.3-1.6-.7-3.2-1.1-4.9h0c0-.2,0-.3-.1-.4a.9.9,0,0,0-.1-.5A116.6,116.6,0,0,0,478,158.5c-1.5-2.3-3.1-4.5-4.7-6.7l-1.4-1.8A114.9,114.9,0,0,0,451,129.1h0a117.7,117.7,0,0,0-53.3-23.2,111.7,111.7,0,0,0-19.3-1.6,112.9,112.9,0,0,0-19.4,1.6,117,117,0,0,0-52.9,23l-.2.2a108.4,108.4,0,0,0-21.1,21l-1.4,1.8a119.7,119.7,0,0,0-19.5,40.1q-1,3.9-1.8,7.8a109.2,109.2,0,0,0-2,17.2v11.4c.1,2.6.3,5.2.6,7.7s.8,6.4,1.4,9.5a117.3,117.3,0,0,0,12.5,34.3,108,108,0,0,0,9.4,14.4l.8,1.1a119.8,119.8,0,0,0,21.1,21l.2.2a117.4,117.4,0,0,0,58,23.7,113.2,113.2,0,0,0,14.3.9,111.6,111.6,0,0,0,14.2-.9,117.3,117.3,0,0,0,58.4-24h0l5.1-4.1.9-.9,5.5-5.1,2.7-2.9L451,295.4h-.1L423,279.9a71.7,71.7,0,0,1-32.7,14.3,67.5,67.5,0,0,1-11.9,1,65.9,65.9,0,0,1-11.9-1,72.5,72.5,0,0,1-47.7-30.1,73.6,73.6,0,0,1-9.3-18.6H494.6A114.8,114.8,0,0,0,496.8,222.6ZM309.5,199.7A71.6,71.6,0,0,1,327.4,171a72.5,72.5,0,0,1,35.2-19.2,69,69,0,0,1,15.8-1.8,67.5,67.5,0,0,1,15.7,1.8,72.7,72.7,0,0,1,53.2,47.9Z"/></g></g></svg>